<svg width="37" height="37" fill="none" xmlns="http://www.w3.org/2000/svg"><path d="M14.23 36.266a1.733 1.733 0 1 0 0-3.467 1.733 1.733 0 0 0 0 3.467ZM3.034 32.365a2.311 2.311 0 1 0 0-4.622 2.311 2.311 0 0 0 0 4.622ZM33.967 19.942a2.311 2.311 0 1 0 0-4.623 2.311 2.311 0 0 0 0 4.623ZM5.43 20.52a2.311 2.311 0 1 0 0-4.623 2.311 2.311 0 0 0 0 4.623ZM24.607 16.612a1.734 1.734 0 1 0 0-3.467 1.734 1.734 0 0 0 0 3.467ZM13.189 13.145a1.733 1.733 0 1 0 0-3.467 1.733 1.733 0 0 0 0 3.467ZM30.993 32.365a2.311 2.311 0 1 0 0-4.623 2.311 2.311 0 0 0 0 4.623ZM18.5 27.02a3.178 3.178 0 1 0 0-6.356 3.178 3.178 0 0 0 0 6.356Z" fill="#FFC94F"/><path d="M3.034 27.02A3.037 3.037 0 0 0 0 30.054a3.037 3.037 0 0 0 3.034 3.034 3.037 3.037 0 0 0 3.033-3.034 3.037 3.037 0 0 0-3.033-3.034Zm0 4.623a1.59 1.59 0 0 1-1.59-1.59 1.59 1.59 0 0 1 1.59-1.588c.876 0 1.589.713 1.589 1.589a1.59 1.59 0 0 1-1.59 1.589ZM33.966 20.664A3.037 3.037 0 0 0 37 17.63a3.037 3.037 0 0 0-3.034-3.033 3.037 3.037 0 0 0-3.003 3.461l-9.178 3.686a3.923 3.923 0 0 0-.531-.661l2.627-3.858a2.459 2.459 0 0 0 3.18-2.347 2.458 2.458 0 0 0-2.455-2.455 2.458 2.458 0 0 0-2.456 2.456c0 .579.202 1.111.539 1.531L20.06 20.27a3.861 3.861 0 0 0-.838-.259V.729a.722.722 0 0 0-1.445 0v19.28c-.004.002-.01.003-.014.003l-2.97-6.745c.521-.45.85-1.115.85-1.855a2.459 2.459 0 0 0-2.455-2.456 2.459 2.459 0 0 0-2.456 2.456 2.459 2.459 0 0 0 2.74 2.438l2.947 6.696c-.456.289-.85.67-1.152 1.116L8.42 18.711a3.037 3.037 0 0 0-2.991-3.536 3.037 3.037 0 0 0-3.033 3.033 3.037 3.037 0 0 0 3.033 3.034 3.03 3.03 0 0 0 2.419-1.205l6.847 2.951a3.893 3.893 0 0 0-.021 1.612l-3.744 1.504a.722.722 0 0 0 .538 1.34l3.746-1.504c.307.479.715.886 1.194 1.191l-1.98 4.954a2.459 2.459 0 0 0-2.656 2.447 2.459 2.459 0 0 0 2.457 2.456 2.459 2.459 0 0 0 2.456-2.456c0-.77-.357-1.46-.915-1.91l1.979-4.953a3.896 3.896 0 0 0 3.86-1.475l6.424 3.195a3.037 3.037 0 0 0 2.96 3.698 3.037 3.037 0 0 0 3.033-3.033 3.037 3.037 0 0 0-3.033-3.034c-.927 0-1.758.419-2.315 1.076l-6.425-3.195a3.892 3.892 0 0 0 .073-1.817l9.177-3.686a3.03 3.03 0 0 0 2.463 1.266Zm-9.36-6.797a1.012 1.012 0 0 1 0 2.023 1.012 1.012 0 0 1 0-2.023Zm-12.43-2.455a1.012 1.012 0 0 1 2.023 0 1.012 1.012 0 0 1-2.022 0ZM5.43 19.797a1.59 1.59 0 0 1-1.589-1.589c0-.876.713-1.589 1.59-1.589.875 0 1.588.713 1.588 1.59a1.59 1.59 0 0 1-1.589 1.588Zm8.8 15.746a1.012 1.012 0 0 1 0-2.022 1.012 1.012 0 0 1 0 2.022Zm16.764-7.078a1.59 1.59 0 0 1 1.589 1.589 1.59 1.59 0 0 1-1.59 1.589 1.59 1.59 0 0 1-1.588-1.59 1.59 1.59 0 0 1 1.589-1.588ZM18.5 26.298a2.459 2.459 0 0 1-2.456-2.456 2.458 2.458 0 0 1 2.456-2.456 2.458 2.458 0 0 1 2.456 2.456 2.459 2.459 0 0 1-2.456 2.456Zm15.466-10.257a1.59 1.59 0 0 1 1.59 1.59 1.59 1.59 0 0 1-1.59 1.588 1.59 1.59 0 0 1-1.589-1.589 1.59 1.59 0 0 1 1.59-1.589Z" fill="#535353"/><path d="M8.2 27.267a.724.724 0 0 0 0 1.445.728.728 0 0 0 .722-.722.726.726 0 0 0-.722-.723Z" fill="#535353"/></svg>