<svg width="42" height="36" fill="none" xmlns="http://www.w3.org/2000/svg"><path d="M12.469 10.778H8.53v-3.28h3.938v3.28ZM20.344 10.778h-3.938v-3.28h3.938v3.28ZM24.938 17.34h-4.594v-3.28h4.593v3.28ZM16.406 17.34H12.47v-3.28h3.937v3.28ZM8.531 17.34H4.594v-3.28H8.53v3.28ZM32.813 35.716a4.6 4.6 0 0 1-4.594-4.594 4.6 4.6 0 0 1 4.593-4.594 4.6 4.6 0 0 1 4.594 4.594 4.6 4.6 0 0 1-4.593 4.594Zm0-5.906c-.724 0-1.313.588-1.313 1.312a1.314 1.314 0 0 0 2.625 0c0-.724-.589-1.312-1.313-1.312ZM11.813 35.716a4.6 4.6 0 0 1-4.594-4.594 4.6 4.6 0 0 1 4.593-4.594 4.6 4.6 0 0 1 4.594 4.594 4.6 4.6 0 0 1-4.593 4.594Zm0-5.906c-.724 0-1.313.588-1.313 1.312a1.314 1.314 0 0 0 2.625 0c0-.724-.589-1.312-1.313-1.312ZM16.406 4.216H12.47V.935h3.937v3.28Z" fill="#FFC94F"/><path d="m39.53 20.622-.876-.438-.891-5.35a3.27 3.27 0 0 0-3.237-2.743h-6.964c-1.067 0-2.008.52-2.607 1.312h-1.986V6.841H19.03V.278H9.844v6.563H5.906v6.562H1.97v6.563c-.724 0-1.313.589-1.313 1.312v1.313c0 .724.589 1.312 1.313 1.312v5.907c0 1.085.883 1.968 1.968 1.968h3.334a4.61 4.61 0 0 1-.052-.656c0-.223.021-.44.052-.656H3.938a.656.656 0 0 1-.657-.656v-.657H6.42l.984-3.937H3.281v-1.313h21v6.563h-7.927c.03.215.052.433.052.656 0 .223-.021.441-.052.656H28.27a4.601 4.601 0 0 1-.052-.656c0-.223.021-.44.052-.656h-.052V22.59H34.78v4.387c.492.234.936.55 1.313.936V19.31l-.648-3.522a1.313 1.313 0 0 0-1.29-1.072h-5.937c-.724 0-1.313.589-1.313 1.312v14.438h-1.312V15.372c0-1.085.883-1.969 1.968-1.969h6.964c.967 0 1.783.693 1.942 1.646l1.002 6.01 1.473.737a1.959 1.959 0 0 1 1.088 1.76v.347h-2.625v3.031l2.625 1.313v1.563a.656.656 0 0 1-.656.656h-2.021c.03.215.052.433.052.656 0 .223-.021.441-.052.656h2.021a1.971 1.971 0 0 0 1.969-1.968v-6.253c0-1.25-.695-2.374-1.814-2.935ZM5.722 26.528l-.328 1.313H3.28v-1.313h2.44Zm28.403-5.25h-.656a1.314 1.314 0 0 1-1.313-1.312h2.625v1.312h-.656Zm.03-5.25.492 2.625h-2.49c-.725 0-1.313.59-1.313 1.313 0 .48.139.925.365 1.312h-2.99v-5.25h5.936Zm-9.874-.656v4.594h-5.25v-5.25h5.317a3.28 3.28 0 0 0-.067.656Zm-6.562-.656v5.25h-6.563v-5.25h6.563Zm3.937-1.313h-6.562v-5.25h6.562v5.25Zm-10.5-11.812h6.563v5.25h-6.563V1.59ZM7.22 8.153h6.562v5.25H7.22v-5.25ZM3.28 14.716h6.563v5.25H3.28v-5.25ZM1.97 22.59v-1.313H24.28v1.313H1.97Zm36.75 3.532v-.907h1.312v1.563l-1.312-.656Z" fill="#535353"/><path d="M32.813 29.153a1.971 1.971 0 0 0-1.97 1.97c0 1.085.884 1.968 1.97 1.968a1.971 1.971 0 0 0 1.968-1.969 1.971 1.971 0 0 0-1.968-1.969Zm0 2.625a.657.657 0 1 1 0-1.313.657.657 0 0 1 0 1.313ZM11.813 29.153a1.971 1.971 0 0 0-1.97 1.97c0 1.085.884 1.968 1.97 1.968a1.971 1.971 0 0 0 1.968-1.969 1.971 1.971 0 0 0-1.969-1.969Zm0 2.625a.657.657 0 1 1 0-1.313.657.657 0 0 1 0 1.313Z" fill="#535353"/></svg>